<?xml version="1.0" encoding="UTF-8"?>
<svg version="1.1" xmlns="http://www.w3.org/2000/svg" width="32" height="32">
<path d="M0 0 C0.33 0.99 0.66 1.98 1 3 C1.928125 3.1546875 1.928125 3.1546875 2.875 3.3125 C5 4 5 4 6.75 6.6875 C8.0418805 10.11098333 8.24117481 12.38237785 8 16 C7.95959207 18.88831696 7.95959207 18.88831696 8.1875 21.3125 C8 24 8 24 5 30 C-1.93 30 -8.86 30 -16 30 C-16.33 29.01 -16.66 28.02 -17 27 C-18.99665314 25.31461399 -18.99665314 25.31461399 -21 24 C-20.49396008 21.83125748 -20.00016187 20.00032373 -19 18 C-19.99 17.67 -20.98 17.34 -22 17 C-22 14.69 -22 12.38 -22 10 C-21.195625 9.773125 -20.39125 9.54625 -19.5625 9.3125 C-18.716875 8.879375 -17.87125 8.44625 -17 8 C-16.18068911 5.48823926 -16.18068911 5.48823926 -16 3 C-15.67 2.67 -15.34 2.34 -15 2 C-14.05125 2.020625 -13.1025 2.04125 -12.125 2.0625 C-7.58876654 1.97177533 -4.88025982 -0.21690044 0 0 Z M-5 2 C-5.66 2.66 -6.32 3.32 -7 4 C-9 3.66666667 -11 3.33333333 -13 3 C-13.66 3.66 -14.32 4.32 -15 5 C-15 6.32 -15 7.64 -15 9 C-13.68 9 -12.36 9 -11 9 C-9.68 9 -8.36 9 -7 9 C-7 8.34 -7 7.68 -7 7 C-4.69 7.33 -2.38 7.66 0 8 C0.2475 8.78375 0.495 9.5675 0.75 10.375 C2.15389099 13.32317108 3.00675737 13.9024777 6 15 C5.39147692 11.45028204 4.61653196 8.23306391 3 5 C2.01 4.67 1.02 4.34 0 4 C-0.33 3.34 -0.66 2.68 -1 2 C-2.32 2 -3.64 2 -5 2 Z M-6 9 C-8.36692966 11.84826598 -8.36692966 11.84826598 -7.625 15.1875 C-7.41875 16.115625 -7.2125 17.04375 -7 18 C-5.68 18 -4.36 18 -3 18 C-1.06521129 15.80329738 -1.06521129 15.80329738 0 13 C-0.20643199 10.74671588 -0.20643199 10.74671588 -1 9 C-3.41619823 8.74969023 -3.41619823 8.74969023 -6 9 Z M-20 11 C-20 12.65 -20 14.3 -20 16 C-18.68 16 -17.36 16 -16 16 C-15.34 15.34 -14.68 14.68 -14 14 C-14.66 14 -15.32 14 -16 14 C-16 13.34 -16 12.68 -16 12 C-15.34 11.67 -14.68 11.34 -14 11 C-17.04913228 9.98888907 -17.04913228 9.98888907 -20 11 Z M-11 11 C-11.33 11.99 -11.66 12.98 -12 14 C-11.34 14 -10.68 14 -10 14 C-10.33 13.01 -10.66 12.02 -11 11 Z M1 15 C0.34 16.32 -0.32 17.64 -1 19 C2.44708859 21.09506252 2.44708859 21.09506252 6 23 C5.67 21.68 5.34 20.36 5 19 C4.34 19 3.68 19 3 19 C3 17.68 3 16.36 3 15 C2.34 15 1.68 15 1 15 Z M-16 18 C-16 18.99 -16 19.98 -16 21 C-16.99 21.33 -17.98 21.66 -19 22 C-18.01 22.99 -17.02 23.98 -16 25 C-15.773125 24.401875 -15.54625 23.80375 -15.3125 23.1875 C-13.66188867 20.43648112 -11.8027919 19.47515363 -9 18 C-9.33 17.34 -9.66 16.68 -10 16 C-13.18490007 15.7226499 -13.18490007 15.7226499 -16 18 Z M-10 20 C-12.28232418 22.20688307 -12.28232418 22.20688307 -14 25 C-13.87436418 27.26424351 -13.87436418 27.26424351 -13 29 C-10.67527795 26.14693203 -9.2491742 23.45925163 -8 20 C-8.66 20 -9.32 20 -10 20 Z M-2 20 C-0.7508258 23.45925163 0.67527795 26.14693203 3 29 C4.37982969 26.01614489 4.37982969 26.01614489 2.75 23.375 C1.15380936 20.73118255 1.15380936 20.73118255 -2 20 Z M-8 24 C-8.66 25.65 -9.32 27.3 -10 29 C-9.01 29 -8.02 29 -7 29 C-7 27.35 -7 25.7 -7 24 C-7.33 24 -7.66 24 -8 24 Z M-4 25 C-3.67 26.32 -3.34 27.64 -3 29 C-2.34 29 -1.68 29 -1 29 C-1.33 27.68 -1.66 26.36 -2 25 C-2.66 25 -3.32 25 -4 25 Z " fill="#006FC7" transform="translate(23,1)"/>
</svg>
