<?xml version="1.0" encoding="UTF-8"?>
<svg version="1.1" xmlns="http://www.w3.org/2000/svg" width="32" height="32">
<path d="M0 0 C2.09015584 0.4304628 2.09015584 0.4304628 4.484375 -0.40625 C8.72941793 -0.93688037 12.25921211 1.39026318 15.984375 3.28125 C16.02679223 5.61419775 16.02530437 7.94827567 15.984375 10.28125 C15.654375 10.61125 15.324375 10.94125 14.984375 11.28125 C13.334375 11.28125 11.684375 11.28125 9.984375 11.28125 C9.984375 17.88125 9.984375 24.48125 9.984375 31.28125 C6.87 31.301875 3.755625 31.3225 0.546875 31.34375 C-0.43595459 31.352854 -1.41878418 31.36195801 -2.43139648 31.37133789 C-3.20040283 31.37383545 -3.96940918 31.37633301 -4.76171875 31.37890625 C-5.55247803 31.38414307 -6.3432373 31.38937988 -7.15795898 31.39477539 C-9.015625 31.28125 -9.015625 31.28125 -10.015625 30.28125 C-10.10214111 28.86554877 -10.12267404 27.445655 -10.11328125 26.02734375 C-10.11005859 25.17333984 -10.10683594 24.31933594 -10.10351562 23.43945312 C-10.09513672 22.54162109 -10.08675781 21.64378906 -10.078125 20.71875 C-10.07361328 19.81705078 -10.06910156 18.91535156 -10.06445312 17.98632812 C-10.05262725 15.75123686 -10.0361472 13.51627563 -10.015625 11.28125 C-11.665625 11.28125 -13.315625 11.28125 -15.015625 11.28125 C-16.37002168 8.57245665 -16.08063951 6.27191732 -16.015625 3.28125 C-10.35024216 0.16060177 -6.41636687 -1.15052096 0 0 Z M-14.015625 4.28125 C-14.015625 5.93125 -14.015625 7.58125 -14.015625 9.28125 C-12.035625 9.28125 -10.055625 9.28125 -8.015625 9.28125 C-8.015625 10.60125 -8.015625 11.92125 -8.015625 13.28125 C-2.405625 13.28125 3.204375 13.28125 8.984375 13.28125 C8.984375 11.96125 8.984375 10.64125 8.984375 9.28125 C10.634375 9.28125 12.284375 9.28125 13.984375 9.28125 C13.984375 7.63125 13.984375 5.98125 13.984375 4.28125 C8.23817276 1.28843633 5.33051535 1.27392613 -1.015625 2.28125 C-2.02625 2.075 -3.036875 1.86875 -4.078125 1.65625 C-8.18978272 1.13135752 -10.34265161 2.44476331 -14.015625 4.28125 Z M-8.015625 14.28125 C-8.015625 15.27125 -8.015625 16.26125 -8.015625 17.28125 C-2.405625 17.28125 3.204375 17.28125 8.984375 17.28125 C8.984375 16.29125 8.984375 15.30125 8.984375 14.28125 C3.374375 14.28125 -2.235625 14.28125 -8.015625 14.28125 Z M-8.015625 19.28125 C-8.015625 19.94125 -8.015625 20.60125 -8.015625 21.28125 C-2.405625 21.28125 3.204375 21.28125 8.984375 21.28125 C8.984375 20.62125 8.984375 19.96125 8.984375 19.28125 C3.374375 19.28125 -2.235625 19.28125 -8.015625 19.28125 Z M-8.015625 23.28125 C-8.015625 24.27125 -8.015625 25.26125 -8.015625 26.28125 C-2.405625 26.28125 3.204375 26.28125 8.984375 26.28125 C8.984375 25.29125 8.984375 24.30125 8.984375 23.28125 C3.374375 23.28125 -2.235625 23.28125 -8.015625 23.28125 Z M-8.015625 27.28125 C-8.015625 27.94125 -8.015625 28.60125 -8.015625 29.28125 C-2.405625 29.28125 3.204375 29.28125 8.984375 29.28125 C8.984375 28.62125 8.984375 27.96125 8.984375 27.28125 C3.374375 27.28125 -2.235625 27.28125 -8.015625 27.28125 Z " fill="#2F87FF" transform="translate(16.015625,0.71875)"/>
<path d="M0 0 C0.66 0 1.32 0 2 0 C1.67 2.31 1.34 4.62 1 7 C2.98 7 4.96 7 7 7 C7.79953138 10.28696233 8.09658936 11.71023192 7 15 C7.99 15 8.98 15 10 15 C10 15.66 10 16.32 10 17 C9.01 17 8.02 17 7 17 C7 17.66 7 18.32 7 19 C9.64 19 12.28 19 15 19 C15.33 19.66 15.66 20.32 16 21 C13.03 21 10.06 21 7 21 C7 21.99 7 22.98 7 24 C10.3 24 13.6 24 17 24 C17 24.33 17 24.66 17 25 C13.7 25 10.4 25 7 25 C7 25.66 7 26.32 7 27 C10.96 27 14.92 27 19 27 C19.33 27.66 19.66 28.32 20 29 C17.68756208 29.02685412 15.3750373 29.04632841 13.0625 29.0625 C11.77472656 29.07410156 10.48695312 29.08570312 9.16015625 29.09765625 C6 29 6 29 5 28 C4.91348389 26.58429877 4.89295096 25.164405 4.90234375 23.74609375 C4.90556641 22.89208984 4.90878906 22.03808594 4.91210938 21.15820312 C4.92048828 20.26037109 4.92886719 19.36253906 4.9375 18.4375 C4.94201172 17.53580078 4.94652344 16.63410156 4.95117188 15.70507812 C4.96299775 13.46998686 4.9794778 11.23502563 5 9 C3.35 9 1.7 9 0 9 C-1.36623674 6.26752652 -1.128426 4.01801098 -1 1 C-0.67 0.67 -0.34 0.34 0 0 Z " fill="#436EFF" transform="translate(1,3)"/>
<path d="M0 0 C2.18224777 0.34715954 2.18224777 0.34715954 4.58984375 -0.4765625 C8.83488668 -1.00719287 12.36468086 1.31995068 16.08984375 3.2109375 C16.13226098 5.54388525 16.13077312 7.87796317 16.08984375 10.2109375 C15.08984375 11.2109375 15.08984375 11.2109375 12.02734375 11.2734375 C11.05796875 11.2528125 10.08859375 11.2321875 9.08984375 11.2109375 C9.08984375 10.5509375 9.08984375 9.8909375 9.08984375 9.2109375 C10.73984375 9.2109375 12.38984375 9.2109375 14.08984375 9.2109375 C13.75984375 7.5609375 13.42984375 5.9109375 13.08984375 4.2109375 C8.04445716 2.88089005 4.2378438 1.95872127 -0.91015625 3.2109375 C-1.87953125 3.0459375 -2.84890625 2.8809375 -3.84765625 2.7109375 C-7.16013204 2.17012513 -9.64883922 2.51208385 -12.91015625 3.2109375 C-12.91015625 2.5509375 -12.91015625 1.8909375 -12.91015625 1.2109375 C-8.19757376 -0.84326513 -4.92678947 -0.73778877 0 0 Z " fill="#0CB1FF" transform="translate(15.91015625,0.7890625)"/>
<path d="M0 0 C0 0.66 0 1.32 0 2 C-0.58007812 1.91621094 -1.16015625 1.83242188 -1.7578125 1.74609375 C-6.42315303 1.13790579 -10.35442117 0.92794335 -15 2 C-15 1.34 -15 0.68 -15 0 C-9.32722858 -2.29612176 -5.7128485 -1.90428283 0 0 Z " fill="#209AFF" transform="translate(18,2)"/>
<path d="M0 0 C0.66 0 1.32 0 2 0 C1.67 2.31 1.34 4.62 1 7 C1.99 7 2.98 7 4 7 C4 7.66 4 8.32 4 9 C2.68 9 1.36 9 0 9 C-1.36623674 6.26752652 -1.128426 4.01801098 -1 1 C-0.67 0.67 -0.34 0.34 0 0 Z " fill="#347DFF" transform="translate(1,3)"/>
</svg>
