<?xml version="1.0" encoding="UTF-8"?>
<svg version="1.1" xmlns="http://www.w3.org/2000/svg" width="32" height="32">
<path d="M0 0 C0.99 0 1.98 0 3 0 C4.640625 1.86328125 4.640625 1.86328125 6.25 4.3125 C6.79140625 5.11300781 7.3328125 5.91351563 7.890625 6.73828125 C9 9 9 9 8 12 C5.09457188 10.6975667 3.1907039 9.29113732 1 7 C-5.07031029 13.61709674 -5.07031029 13.61709674 -7 22 C-6.24300635 24.92836371 -6.24300635 24.92836371 -4 27 C-1.32740693 27.85567429 1.19999172 28.22016194 4 28 C4.99 27.34 5.98 26.68 7 26 C9.1875 26.375 9.1875 26.375 11 27 C10 30 10 30 8.2421875 31.16015625 C4.20333763 32.67296587 0.23388008 32.6734203 -4 32 C-7.12177233 30.31712073 -9.39137035 28.2172593 -11 25 C-11.62712854 20.72917529 -11.90126145 16.69667004 -9.8359375 12.80859375 C-8.29946797 10.79542469 -6.66644467 8.9061926 -5 7 C-4.091575 5.67521354 -3.19482178 4.34231271 -2.3125 3 C-1.1678125 1.515 -1.1678125 1.515 0 0 Z " fill="#7DD3FB" transform="translate(11,0)"/>
<path d="M0 0 C0.99 -0.33 1.98 -0.66 3 -1 C4.66666667 -0.66666667 6.33333333 -0.33333333 8 0 C8.99 -0.33 9.98 -0.66 11 -1 C13.6875 0.25 13.6875 0.25 16 2 C16 2.99 16 3.98 16 5 C15.030625 4.814375 14.06125 4.62875 13.0625 4.4375 C12.051875 4.293125 11.04125 4.14875 10 4 C9.67 4.33 9.34 4.66 9 5 C7.33391013 5.04384447 5.66619446 5.0396713 4 5 C3.01 5 2.02 5 1 5 C-3 5 -7 5 -11 5 C-11 4.01 -11 3.02 -11 2 C-7.07925386 -1.22884976 -4.80841525 -1.04530766 0 0 Z " fill="#78BCFA" transform="translate(16,20)"/>
<path d="M0 0 C0.721875 -0.20625 1.44375 -0.4125 2.1875 -0.625 C4 -1 4 -1 6.25 0.25 C6.8275 0.8275 7.405 1.405 8 2 C8 2.99 8 3.98 8 5 C7.113125 4.814375 6.22625 4.62875 5.3125 4.4375 C2.11270038 4.01488496 0.10073876 4.32957 -3 5 C-3.99 4.67 -4.98 4.34 -6 4 C-8.63804589 4.39397335 -8.63804589 4.39397335 -11 5 C-10.6875 3.125 -10.6875 3.125 -10 1 C-6.11056612 -1.59295592 -4.49582454 -0.70986703 0 0 Z " fill="#75B3FA" transform="translate(24,14)"/>
</svg>
