<?xml version="1.0" encoding="UTF-8"?>
<svg version="1.1" xmlns="http://www.w3.org/2000/svg" width="32" height="32">
<path d="M0 0 C3.86479933 2.57653289 4.74159706 5.64398981 6 10 C6.33 10.33 6.66 10.66 7 11 C7.04080783 12.99958364 7.04254356 15.00045254 7 17 C6.01 17 5.02 17 4 17 C3.67 15.35 3.34 13.7 3 12 C2.34 12 1.68 12 1 12 C0.34 9.69 -0.32 7.38 -1 5 C-3.97 4.505 -3.97 4.505 -7 4 C-7.99 5.65 -8.98 7.3 -10 9 C-12.31 8.67 -14.62 8.34 -17 8 C-17.103125 8.94875 -17.20625 9.8975 -17.3125 10.875 C-18 14 -18 14 -21 16 C-21 16.66 -21 17.32 -21 18 C-18.03 18.33 -15.06 18.66 -12 19 C-12 20.32 -12 21.64 -12 23 C-13.60332791 23.08121924 -15.20784026 23.13929134 -16.8125 23.1875 C-18.15248047 23.23970703 -18.15248047 23.23970703 -19.51953125 23.29296875 C-22 23 -22 23 -23.8125 21.71875 C-25.71849898 18.96006727 -25.18355742 16.2428478 -25 13 C-24.360625 12.773125 -23.72125 12.54625 -23.0625 12.3125 C-20.72912652 11.16822177 -20.72912652 11.16822177 -20.4375 8.5 C-20.293125 7.675 -20.14875 6.85 -20 6 C-16.77208445 3.8480563 -15.71599191 3.79913557 -12 4 C-11.67 3.01 -11.34 2.02 -11 1 C-7.54138188 -0.72930906 -3.78193574 -0.47864071 0 0 Z " fill="#2CCAFE" transform="translate(25,0)"/>
<path d="M0 0 C0.99 0 1.98 0 3 0 C2.41190166 3.98042168 1.17968323 6.86247219 -0.875 10.3125 C-1.38804688 11.19550781 -1.90109375 12.07851563 -2.4296875 12.98828125 C-2.94789062 13.65214844 -3.46609375 14.31601562 -4 15 C-4.99 15 -5.98 15 -7 15 C-6.41924692 11.27790075 -5.38005719 8.50730838 -3.5 5.25 C-3.0565625 4.47140625 -2.613125 3.6928125 -2.15625 2.890625 C-1 1 -1 1 0 0 Z " fill="#47B2FE" transform="translate(26,17)"/>
<path d="M0 0 C2.625 0.375 2.625 0.375 5 1 C5 2.98 5 4.96 5 7 C3.02 7 1.04 7 -1 7 C-1.625 4.625 -1.625 4.625 -2 2 C-1.34 1.34 -0.68 0.68 0 0 Z " fill="#4CAEFE" transform="translate(27,25)"/>
<path d="M0 0 C1.2065625 0.0309375 1.2065625 0.0309375 2.4375 0.0625 C3.0625 2.4375 3.0625 2.4375 3.4375 5.0625 C2.7775 5.7225 2.1175 6.3825 1.4375 7.0625 C-0.6875 6.6875 -0.6875 6.6875 -2.5625 6.0625 C-2.94468767 4.40635343 -3.27645102 2.73792976 -3.5625 1.0625 C-2.5625 0.0625 -2.5625 0.0625 0 0 Z " fill="#3DBCFE" transform="translate(18.5625,16.9375)"/>
</svg>
