<?xml version="1.0" encoding="UTF-8"?>
<svg version="1.1" xmlns="http://www.w3.org/2000/svg" width="512" height="512">
<path d="M0 0 C21.24197207 16.63005792 37.21462404 36.51170048 48.3125 61.125 C48.85519531 62.29933594 49.39789063 63.47367187 49.95703125 64.68359375 C56.390396 79.55362418 60.41366986 96.64689748 60.515625 112.8671875 C60.52132507 113.59382599 60.52702515 114.32046448 60.53289795 115.06912231 C60.54229519 116.6036842 60.54886079 118.13826579 60.55273438 119.67285156 C60.5623295 121.95937059 60.59335565 124.24494544 60.625 126.53125 C60.74176069 142.31226729 57.68714152 155.81375468 53.3125 171.125 C-42.3875 171.125 -138.0875 171.125 -236.6875 171.125 C-242.59303108 151.04619432 -242.59303108 151.04619432 -243.6875 142.125 C-243.79835938 141.27292969 -243.90921875 140.42085937 -244.0234375 139.54296875 C-248.39862056 100.10719716 -236.41883711 59.67878309 -212 28.5 C-208.17818285 23.7345243 -204.1469928 19.29643944 -199.6875 15.125 C-198.89859375 14.33609375 -198.1096875 13.5471875 -197.296875 12.734375 C-145.15372025 -39.40877975 -58.74459252 -44.76366158 0 0 Z " fill="#FB8412" transform="translate(347.6875,173.875)"/>
<path d="M0 0 C1.28328688 -0.01043099 2.56657375 -0.02086198 3.88874811 -0.03160906 C5.3159383 -0.02296049 6.74312625 -0.01393385 8.17031193 -0.00457001 C9.68400853 -0.00917729 11.19770066 -0.01552904 12.7113834 -0.02347898 C16.87719174 -0.0402196 21.04263484 -0.03190462 25.20844471 -0.01953411 C29.6986534 -0.01050513 34.1887981 -0.02444268 38.67899418 -0.0354538 C47.47803863 -0.0532671 56.27694683 -0.04938642 65.07599669 -0.03780323 C72.2259469 -0.02877965 79.37585884 -0.02754025 86.5258131 -0.0318985 C88.0506711 -0.0328179 88.0506711 -0.0328179 89.60633432 -0.03375587 C91.67131854 -0.03503474 93.73630275 -0.03633159 95.80128694 -0.03764623 C115.1781251 -0.04906042 134.55488765 -0.03592549 153.93171341 -0.01444477 C170.56565121 0.00342427 187.19947735 0.00032531 203.83341312 -0.01811981 C223.13807565 -0.03951637 242.44267183 -0.04795886 261.74734455 -0.03567076 C263.80515356 -0.03439653 265.86296257 -0.03313905 267.9207716 -0.0318985 C269.43958903 -0.03097285 269.43958903 -0.03097285 270.98908965 -0.03002849 C278.1317117 -0.02657175 285.27429176 -0.03241098 292.41690731 -0.04181671 C301.11967835 -0.0530247 309.82230505 -0.05002206 318.52505951 -0.02869374 C322.96719707 -0.01816671 327.40909379 -0.01408948 331.85122967 -0.02729034 C335.9156462 -0.0391862 339.97959805 -0.03269846 344.04397226 -0.01138014 C345.51633639 -0.00690207 346.98873955 -0.00920732 348.4610787 -0.01888329 C350.4588787 -0.03100804 352.45678826 -0.01620563 354.45455933 0 C356.12074732 0.00097411 356.12074732 0.00097411 357.82059568 0.00196791 C361.47848525 0.6195766 363.16267249 1.93424031 365.79020023 4.50336456 C366.8886392 8.20336951 366.28269291 11.5887353 364.47770023 14.94086456 C361.25491559 17.92492442 357.92621174 17.63006841 353.75030041 17.63479233 C352.47945477 17.63863347 351.20860913 17.64247462 349.89925301 17.64643216 C348.4809135 17.64565187 347.06257405 17.64477308 345.64423466 17.64380646 C344.14378084 17.64638931 342.64332772 17.64940225 341.14287555 17.65280986 C337.00913035 17.66089235 332.87540251 17.66267012 328.74165034 17.66340733 C324.28757335 17.66525569 319.83350541 17.67280186 315.37943363 17.67954254 C305.63578589 17.69313471 295.89214226 17.6991518 286.14848661 17.7035532 C280.06766039 17.70631382 273.98683577 17.71055082 267.90601063 17.71505737 C251.07859045 17.72725062 234.25117156 17.7375502 217.42374706 17.74093246 C215.80772608 17.74126181 215.80772608 17.74126181 214.15905821 17.74159782 C213.07909873 17.74181609 211.99913926 17.74203437 210.88645375 17.74225926 C208.69795648 17.74270273 206.50945922 17.7431493 204.32096195 17.74359894 C203.23538623 17.74382037 202.14981051 17.7440418 201.03133856 17.74426994 C183.43300298 17.74821969 165.83470877 17.76567888 148.23638918 17.78895846 C130.17980025 17.81265201 112.12323211 17.82513338 94.06662738 17.82630038 C83.92388556 17.82721821 73.78119765 17.83299757 63.63847065 17.85112 C55.00341511 17.86649399 46.36843014 17.87165742 37.73336352 17.86338189 C33.3256901 17.85946593 28.91815889 17.86045093 24.51050282 17.87443924 C20.47758906 17.88712153 16.44492522 17.88603093 12.41201209 17.87384853 C10.95105105 17.87188165 9.49007266 17.87501538 8.02913608 17.88369289 C6.04671355 17.89472479 4.06420913 17.88553902 2.08178234 17.87530136 C0.42845117 17.87619699 0.42845117 17.87619699 -1.25828063 17.87711072 C-4.6161858 17.45190455 -6.50209672 16.50268315 -9.20979977 14.50336456 C-10.77451209 11.37393991 -10.90681935 7.89254233 -10.20979977 4.50336456 C-7.09190801 0.51121533 -4.9796237 0.00291169 0 0 Z " fill="#FB8412" transform="translate(78.20979976654053,359.4966354370117)"/>
<path d="M0 0 C0.86474855 -0.00297112 1.72949709 -0.00594224 2.62045014 -0.0090034 C5.5292132 -0.01770165 8.43793516 -0.01919959 11.34671021 -0.02069092 C13.42768441 -0.02531825 15.50865777 -0.03034279 17.58963013 -0.03573608 C23.25076436 -0.04886917 28.91188672 -0.05530666 34.57303381 -0.05974674 C38.10771311 -0.06267563 41.64238914 -0.06678006 45.1770668 -0.07125092 C56.23007533 -0.08492742 67.28307643 -0.09459368 78.33609283 -0.09845281 C91.10697391 -0.10293592 103.87774808 -0.12049496 116.64859664 -0.1494534 C126.51277477 -0.17104668 136.37692276 -0.18115581 146.24112427 -0.18249393 C152.13614198 -0.18354352 158.03105921 -0.18948432 163.92605209 -0.20731354 C169.46968098 -0.22375379 175.01313343 -0.22596941 180.55677795 -0.21717453 C182.59295752 -0.21640202 184.62914642 -0.22077492 186.66530228 -0.23063278 C189.44211915 -0.24328956 192.21830518 -0.23750969 194.99511719 -0.22705078 C195.80338766 -0.23510719 196.61165813 -0.24316359 197.44442165 -0.25146413 C202.00607113 -0.21120005 205.00972917 0.27806696 208.62454224 3.14044189 C210.19154666 6.27445074 210.47618784 9.77199285 209.62454224 13.14044189 C206.67026874 16.25535353 204.98494955 17.09443674 200.68115234 17.64380646 C199.09846885 17.66575056 197.51538839 17.66571146 195.93264771 17.64837646 C194.62071095 17.65773641 194.62071095 17.65773641 193.28227043 17.66728544 C190.35181591 17.68323911 187.42219042 17.67060186 184.49172974 17.65802002 C182.3907523 17.66344008 180.28977867 17.67056208 178.18881226 17.67926025 C172.48224842 17.69751026 166.77597355 17.69041903 161.0694046 17.67774391 C155.1006339 17.66762501 149.13188812 17.67700651 143.16311646 17.68328857 C133.13914543 17.6905682 123.11529225 17.68096895 113.09133911 17.66192627 C101.49816634 17.64015701 89.90527494 17.64720815 78.31210899 17.66923189 C68.36294329 17.68737685 58.41386234 17.68994861 48.46468544 17.67947721 C42.52050794 17.67323734 36.57646273 17.67242031 30.6322937 17.68562317 C25.04423586 17.6971678 19.4565412 17.68918101 13.86852264 17.66604614 C11.81622674 17.66075167 9.76390033 17.66228539 7.71161652 17.6710968 C4.91280897 17.68200658 2.11516961 17.66834388 -0.68356323 17.64837646 C-1.90559543 17.6617608 -1.90559543 17.6617608 -3.15231514 17.67541552 C-6.94273627 17.62286085 -9.14878286 17.2842184 -12.3815918 15.23369598 C-14.37545776 13.14044189 -14.37545776 13.14044189 -14.96920776 11.14044189 C-14.77400219 6.9760564 -14.60416967 4.12998996 -11.37545776 1.14044189 C-7.55937151 -0.13158686 -3.97616437 -0.00423913 0 0 Z " fill="#FB8412" transform="translate(158.37545776367188,422.85955810546875)"/>
<path d="M0 0 C0.96147949 -0.0038269 1.92295898 -0.00765381 2.91357422 -0.01159668 C4.9443466 -0.01431602 6.97515399 -0.00695329 9.00585938 0.00976562 C12.1140757 0.03117475 15.21998056 0.00996454 18.328125 -0.015625 C20.30208843 -0.01298173 22.27605043 -0.00785676 24.25 0 C25.17925293 -0.00809692 26.10850586 -0.01619385 27.06591797 -0.02453613 C33.49490741 0.06888419 33.49490741 0.06888419 36.70678711 2.42578125 C38.32461003 4.82758963 38.69243107 6.15150583 38.6875 9.03125 C38.70941406 9.7840625 38.73132813 10.536875 38.75390625 11.3125 C37.77961595 14.74974778 36.14217478 15.65983474 33.125 17.53125 C29.95635837 18.11565986 26.84010456 18.09217653 23.625 18.0625 C22.25504883 18.06824036 22.25504883 18.06824036 20.85742188 18.07409668 C18.93097834 18.07681253 17.00449772 18.06947424 15.078125 18.05273438 C12.13457792 18.03131968 9.19347145 18.05254671 6.25 18.078125 C4.37499463 18.07548167 2.49999077 18.07035657 0.625 18.0625 C-0.69081055 18.07464539 -0.69081055 18.07464539 -2.03320312 18.08703613 C-6.16587011 18.02382636 -8.34347812 17.86092867 -11.92944336 15.63671875 C-14.1554171 13.22778444 -14.53163638 12.26511148 -14.4375 9.03125 C-14.43878906 8.2784375 -14.44007812 7.525625 -14.44140625 6.75 C-12.5468243 -0.6715348 -6.33972406 -0.05524036 0 0 Z " fill="#F7D902" transform="translate(45.875,287.46875)"/>
<path d="M0 0 C2.75081653 2.23503843 2.95591084 3.77073639 3.625 7.25 C2.17963632 15.92218207 -7.62537785 22.87120453 -13.65283203 28.94799805 C-14.64232239 29.94913912 -15.62729537 30.95476334 -16.60791016 31.96459961 C-18.04404374 33.44330821 -19.49289477 34.90839762 -20.9453125 36.37109375 C-21.79625488 37.23661865 -22.64719727 38.10214355 -23.52392578 38.99389648 C-26.16270014 41.13181887 -27.64568532 41.76598616 -31 42 C-34.35616191 41.0410966 -37.10222761 39.99648272 -39 37 C-39.8407877 30.37538529 -39.8407877 30.37538529 -37.88336182 27.17337036 C-36.24939166 25.30831475 -34.53394165 23.60774215 -32.7265625 21.91015625 C-32.08762054 21.2801622 -31.44867859 20.65016815 -30.79037476 20.00108337 C-28.75330288 18.00201692 -26.68987368 16.0327938 -24.625 14.0625 C-23.24302332 12.71209378 -21.86279369 11.3598972 -20.484375 10.00585938 C-8.09028103 -2.10115683 -8.09028103 -2.10115683 0 0 Z " fill="#FD481D" transform="translate(414,136)"/>
<path d="M0 0 C0.91330078 -0.0038269 1.82660156 -0.00765381 2.76757812 -0.01159668 C4.69402166 -0.01431253 6.62050228 -0.00697424 8.546875 0.00976562 C11.49042208 0.03118032 14.43152855 0.00995329 17.375 -0.015625 C19.25000537 -0.01298167 21.12500923 -0.00785657 23 0 C23.87720703 -0.00809692 24.75441406 -0.01619385 25.65820312 -0.02453613 C29.8008857 0.03882683 31.96714985 0.19860169 35.55664062 2.43945312 C37.5 4.53125 37.5 4.53125 38.09375 6.53125 C37.89854443 10.6956355 37.72871191 13.54170194 34.5 16.53125 C30.54924961 17.8481668 26.75300638 17.71362282 22.6328125 17.734375 C21.76107391 17.74007507 20.88933533 17.74577515 19.99118042 17.75164795 C18.14696464 17.76109183 16.30273203 17.7676295 14.45849609 17.77148438 C11.64260314 17.78118933 8.82744041 17.81221786 6.01171875 17.84375 C4.21875433 17.85028043 2.42578469 17.85553075 0.6328125 17.859375 C-0.20692108 17.8717218 -1.04665466 17.8840686 -1.91183472 17.89678955 C-6.59468914 17.87901735 -9.70322445 17.58989292 -13.5 14.53125 C-15.06700442 11.39724115 -15.35164561 7.89969905 -14.5 4.53125 C-10.11125535 -0.21336868 -6.06253291 -0.05595927 0 0 Z " fill="#FE2F22" transform="translate(442.5,287.46875)"/>
<path d="M0 0 C2.56380183 1.76131776 4.63185644 3.90678217 6.7734375 6.15234375 C7.38265045 6.76767471 7.9918634 7.38300568 8.61953735 8.01698303 C10.55253959 9.97682606 12.46338974 11.95680989 14.375 13.9375 C15.68225671 15.26629066 16.99083768 16.5937799 18.30078125 17.91992188 C28.85067089 28.65603804 28.85067089 28.65603804 29.3125 32.8125 C28.91378388 36.8794044 28.11416229 38.35296205 25 41 C21.61779398 41.6764412 20.18381118 41.90540664 17 41 C15.21948242 39.77563477 15.21948242 39.77563477 13.41796875 38.12890625 C12.72525879 37.49581543 12.03254883 36.86272461 11.31884766 36.21044922 C6.83364413 31.93491408 2.43489531 27.57807575 -1.9375 23.1875 C-2.90412902 22.22444087 -3.8709249 21.26154919 -4.83789062 20.29882812 C-5.74603516 19.38939453 -6.65417969 18.47996094 -7.58984375 17.54296875 C-8.41347412 16.71821045 -9.23710449 15.89345215 -10.08569336 15.04370117 C-12.63092815 12.32642526 -12.96289469 11.40073731 -13.3125 7.625 C-13 4 -13 4 -11.125 1.625 C-7.10005802 -1.45289681 -4.95026652 -1.23422573 0 0 Z " fill="#F8C006" transform="translate(108,136)"/>
<path d="M0 0 C0.66 -0.0103125 1.32 -0.020625 2 -0.03125 C5.10202388 0.79272509 6.0831219 1.89353573 8 4.5 C8.62169498 7.8585855 8.58417816 11.1857287 8.56640625 14.59375 C8.57570412 16.06926331 8.57570412 16.06926331 8.58518982 17.57458496 C8.59228747 19.65241507 8.58911495 21.73030205 8.57641602 23.80810547 C8.56254788 26.98901854 8.59662521 30.16699157 8.63476562 33.34765625 C8.6357168 35.36718822 8.6338581 37.38672388 8.62890625 39.40625 C8.64216446 40.35737671 8.65542267 41.30850342 8.66908264 42.28845215 C8.57626091 48.86302022 8.57626091 48.86302022 5.64819336 52.09960938 C2.38756463 53.82386183 0.6400741 54.10667902 -3 53.5 C-5.64819336 52.09960938 -5.64819336 52.09960938 -8 49.5 C-8.74908534 46.14060349 -8.67671661 42.83610298 -8.62890625 39.40625 C-8.63131821 38.42257446 -8.63373016 37.43889893 -8.63621521 36.42541504 C-8.63523655 34.34753382 -8.62183861 32.2696266 -8.59692383 30.19189453 C-8.56262018 27.01114339 -8.57626282 23.83317079 -8.59570312 20.65234375 C-8.58880457 18.63280067 -8.57913211 16.61326477 -8.56640625 14.59375 C-8.57136612 13.64262329 -8.57632599 12.69149658 -8.58143616 11.71154785 C-8.46404334 5.13098033 -8.46404334 5.13098033 -6.08959961 1.90234375 C-3.83176422 0.38709588 -2.69510776 -0.04211106 0 0 Z " fill="#FB8512" transform="translate(256,71.5)"/>
</svg>
