<?xml version="1.0" encoding="UTF-8"?>
<svg version="1.1" xmlns="http://www.w3.org/2000/svg" width="512" height="512">
<path d="M0 0 C0.6815918 0.21430664 1.36318359 0.42861328 2.06542969 0.64941406 C16.29351879 5.23201941 28.68612402 12.18713576 40 22 C40.80824219 22.66386719 41.61648438 23.32773438 42.44921875 24.01171875 C61.86112596 40.4981266 76.00865394 66.04821637 78.80517578 91.47998047 C80.69731027 115.95443186 78.63356524 140.05431361 66.38037109 161.77954102 C65.93358002 162.57449478 65.48678894 163.36944855 65.02645874 164.18849182 C64.68772736 164.78628952 64.34899597 165.38408722 64 166 C64.82827805 165.99111755 65.65655609 165.98223511 66.50993347 165.9730835 C74.32259102 165.89287505 82.13510992 165.83200394 89.94808483 165.79275131 C93.96467365 165.77189247 97.98092173 165.74360668 101.99731445 165.69824219 C105.87471672 165.65472254 109.75179164 165.63085008 113.62941933 165.62049103 C115.10740626 165.61311053 116.58537563 165.59869786 118.06322289 165.57707977 C120.13653391 165.54796239 122.20849923 165.54404717 124.28198242 165.54589844 C125.46112717 165.53701599 126.64027191 165.52813354 127.85514832 165.51898193 C131.64907336 166.09927845 133.30392533 167.31833227 136 170 C136.6640625 172.21875 136.6640625 172.21875 136.625 174.5 C136.63789063 175.2528125 136.65078125 176.005625 136.6640625 176.78125 C135.67763962 180.07706293 133.81401734 181.10869988 131 183 C128.28161526 183.50139666 128.28161526 183.50139666 125.27622986 183.50336456 C123.55209161 183.51901105 123.55209161 183.51901105 121.79312229 183.53497362 C120.53486606 183.52605073 119.27660982 183.51712785 117.98022461 183.50793457 C116.62653145 183.51254393 115.27284329 183.51889709 113.91916561 183.52684355 C110.20026305 183.5435555 106.48177061 183.53528229 102.7628665 183.52289867 C98.75188626 183.51385804 94.74097715 183.52781299 90.73001099 183.53881836 C82.87291572 183.55661876 75.01597317 183.55275685 67.15887189 183.5411678 C60.77410455 183.53213972 54.38938005 183.53090676 48.00460815 183.53526306 C47.09641073 183.53587599 46.18821331 183.53648893 45.25249475 183.53712043 C43.40759507 183.53839931 41.56269539 183.53969617 39.71779573 183.5410108 C22.41209594 183.55242105 5.10648086 183.53929591 -12.19920504 183.51780933 C-27.05309319 183.49993794 -41.9068563 183.50304193 -56.76074219 183.52148438 C-74.00388238 183.54288323 -91.24694829 183.55132237 -108.49009991 183.53903532 C-110.32826931 183.5377611 -112.16643873 183.53650362 -114.00460815 183.53526306 C-114.90905782 183.53464596 -115.81350749 183.53402886 -116.74536473 183.53339306 C-123.12356571 183.5299372 -129.50171964 183.53577357 -135.87991333 183.54518127 C-143.65125249 183.5563917 -151.42243001 183.55338141 -159.19375062 183.5320583 C-163.15996718 183.52153492 -167.1259141 183.51744777 -171.09212875 183.53065491 C-174.72167612 183.54255832 -178.35070345 183.53605084 -181.98020351 183.5147447 C-183.9178436 183.50814698 -185.85551968 183.52123317 -187.79312229 183.53497362 C-188.94254779 183.52454263 -190.09197329 183.51411164 -191.27622986 183.50336456 C-192.26800704 183.50271515 -193.25978422 183.50206574 -194.28161526 183.50139666 C-197.7874787 182.85475228 -199.47120542 181.46842861 -202 179 C-203.23674251 175.36706886 -203.34458203 173.75808047 -201.75 170.25 C-200 168 -200 168 -197 166 C-194.09565735 165.75949097 -194.09565735 165.75949097 -190.5090332 165.77294922 C-189.8551059 165.77265717 -189.20117859 165.77236511 -188.5274353 165.77206421 C-186.36841511 165.7734563 -184.20974107 165.78901143 -182.05078125 165.8046875 C-180.55291431 165.80841807 -179.05504493 165.81126483 -177.55717468 165.81326294 C-173.61649833 165.82089597 -169.67596962 165.84054155 -165.73535156 165.8626709 C-161.71356198 165.88313647 -157.69174853 165.89226618 -153.66992188 165.90234375 C-145.7798802 165.92378782 -137.88995847 165.95791971 -130 166 C-130.54414551 164.94071289 -131.08829102 163.88142578 -131.64892578 162.79003906 C-132.37299413 161.36537298 -133.09677427 159.94056039 -133.8203125 158.515625 C-134.17778564 157.82162598 -134.53525879 157.12762695 -134.90356445 156.41259766 C-147.55726373 131.39508912 -149.0373581 99.81955028 -140.5234375 73.30859375 C-135.66930846 58.95428145 -129.00273499 46.48188249 -119 35 C-118.25105469 34.10667969 -117.50210938 33.21335938 -116.73046875 32.29296875 C-88.76924932 -0.00472413 -40.69690345 -13.19085622 0 0 Z " fill="#2A8BFF" transform="translate(289,179)"/>
<path d="M0 0 C0.98023146 -0.00583219 1.96046292 -0.01166439 2.97039837 -0.01767331 C4.04480192 -0.01389399 5.11920548 -0.01011467 6.22616673 -0.00622082 C7.36945126 -0.01004636 8.51273579 -0.01387191 9.6906653 -0.01781338 C12.86446329 -0.02635562 16.03811385 -0.02590631 19.21191585 -0.02163279 C22.63461684 -0.01916935 26.05729042 -0.02817496 29.47998142 -0.03567028 C36.18547052 -0.04842985 42.8909196 -0.05020942 49.59641879 -0.04787002 C55.04584698 -0.04608814 60.49526301 -0.04783369 65.94468975 -0.05209446 C66.71980532 -0.05268965 67.4949209 -0.05328484 68.29352482 -0.05389806 C69.86809003 -0.05510979 71.44265524 -0.05632393 73.01722044 -0.05754044 C87.7886807 -0.06842078 102.56011814 -0.06625112 117.33157969 -0.06015559 C130.84948315 -0.05498571 144.36731457 -0.06624288 157.88520377 -0.08525381 C171.76078365 -0.10461841 185.63632941 -0.11289066 199.5119229 -0.10913056 C207.30386066 -0.10721645 215.09573709 -0.10972643 222.88766384 -0.1238451 C229.52080812 -0.13574232 236.15385332 -0.13718249 242.78699892 -0.12505493 C246.17197264 -0.1191545 249.55661595 -0.1197174 252.94160175 -0.13005733 C256.60946191 -0.14045564 260.27683055 -0.13247937 263.94467258 -0.11974621 C265.01684542 -0.12712049 266.08901826 -0.13449478 267.19368118 -0.14209253 C276.19876554 -0.07606389 276.19876554 -0.07606389 280.14891148 3.25447559 C282.07754987 5.79677165 282.15793439 7.03792577 282.02391148 10.25447559 C280.94163511 13.96513742 280.33845985 15.03268336 277.14891148 17.25447559 C273.41057157 17.86950668 269.69408155 17.79334359 265.91307163 17.76241016 C264.75274733 17.76865013 263.59242302 17.77489009 262.39693737 17.78131914 C259.17544493 17.79452825 255.95455369 17.78975469 252.7330761 17.77737427 C249.25924863 17.76833674 245.78550344 17.78228701 242.31169224 17.79329395 C235.5062278 17.81109774 228.70093963 17.80723099 221.89546824 17.79564339 C216.36545297 17.78661662 210.83548717 17.78538178 205.30546665 17.78973866 C204.51896091 17.79035159 203.73245517 17.79096452 202.92211592 17.79159603 C201.32443697 17.7928749 199.72675803 17.79417176 198.1290791 17.79548639 C183.14110895 17.80689763 168.1532366 17.79376998 153.16528249 17.77228492 C140.29975046 17.75441343 127.43436278 17.75751739 114.56883335 17.77595997 C99.63517917 17.7973571 84.70161075 17.80579895 69.76794338 17.79351091 C68.17608103 17.79223669 66.58421867 17.79097921 64.9923563 17.78973866 C64.20909178 17.78912155 63.42582727 17.78850445 62.61882746 17.78786865 C57.09426832 17.78441227 51.56976348 17.79025028 46.04521275 17.79965687 C39.31428697 17.81086541 32.58354783 17.8078611 25.85264349 17.78653389 C22.4171636 17.77600784 18.98199508 17.77192766 15.54651737 17.7851305 C11.8256146 17.79600409 8.10559714 17.78242003 4.38475132 17.76241016 C2.74877711 17.77579449 2.74877711 17.77579449 1.07975292 17.78944921 C-6.19496166 17.71316869 -6.19496166 17.71316869 -9.49473476 15.40632343 C-11.27927518 12.5751598 -11.78270537 10.60525001 -11.85108852 7.25447559 C-9.37950674 1.53081252 -6.0352396 0.00618095 0 0 Z " fill="#2A8BFF" transform="translate(120.85108852386475,384.7455244064331)"/>
<path d="M0 0 C0.91360232 -0.00367669 1.82720463 -0.00735338 2.76849186 -0.01114148 C5.84852531 -0.02220836 8.92852506 -0.02602721 12.00857544 -0.02983093 C14.20924996 -0.03609321 16.40992342 -0.0427398 18.6105957 -0.04974365 C24.60228661 -0.06717295 30.59396954 -0.07771023 36.58567953 -0.08594918 C40.32554483 -0.09109421 44.06540762 -0.0971701 47.80527115 -0.10346031 C58.82535208 -0.12142231 69.8454284 -0.13580191 80.86552138 -0.14363671 C82.88260712 -0.14507524 84.89969285 -0.14652661 86.91677856 -0.147995 C87.58449603 -0.14847874 88.25221349 -0.14896248 88.94016482 -0.14946087 C99.76235357 -0.15776531 110.58443193 -0.18310942 121.40657245 -0.21557567 C132.51241545 -0.24862201 143.61821245 -0.26632258 154.72410595 -0.26985329 C160.96175255 -0.27220927 167.19922464 -0.28124093 173.4368248 -0.30631447 C179.30221335 -0.32951077 185.16731147 -0.33386248 191.03273392 -0.32355309 C193.18866692 -0.32305559 195.34461382 -0.32943858 197.50050354 -0.34310913 C200.43770018 -0.36069592 203.37383945 -0.35378719 206.31103516 -0.34057617 C207.16959197 -0.35154542 208.02814878 -0.36251466 208.91272247 -0.37381631 C214.67336743 -0.31100721 214.67336743 -0.31100721 217.7846241 2.02921772 C219.58638652 4.57685571 220.20793179 6.01525478 220.28250122 9.14717102 C219.17174246 12.12868138 218.3182526 14.3789706 215.71918392 16.30665874 C212.0244179 17.5811358 208.34620926 17.42522885 204.483078 17.40786743 C203.58480661 17.41169298 202.68653522 17.41551853 201.76104349 17.41946 C198.74478078 17.42979606 195.72870821 17.42579669 192.71243286 17.42182922 C190.55249352 17.42617535 188.39255573 17.43135816 186.23262024 17.43731689 C180.3607905 17.45072855 174.48902504 17.45128317 168.61718297 17.4487536 C163.71886628 17.44768539 158.82056267 17.45256337 153.92224878 17.45735902 C142.36857627 17.46846162 130.81493626 17.46888731 119.26126099 17.46284485 C107.33358521 17.45680281 95.40602734 17.46912026 83.47837168 17.49041492 C73.24474428 17.50801486 63.01115447 17.51403483 52.77751249 17.51077718 C46.6623069 17.50896167 40.54718541 17.51162714 34.43199348 17.52549171 C28.68232785 17.53803933 22.93284638 17.53615499 17.18318367 17.52308083 C15.07121723 17.52070884 12.95923795 17.5234719 10.84728622 17.53170395 C7.9676113 17.54212036 5.08856021 17.53411177 2.20890808 17.52139282 C1.37019214 17.52876711 0.5314762 17.53614139 -0.33265537 17.54373914 C-4.92286866 17.50099159 -8.03284649 17.19436904 -11.71749878 14.14717102 C-13.60211202 9.98531678 -14.06886845 8.09586914 -12.46749878 3.77217102 C-9.27697479 -1.01361497 -5.27961933 -0.00112786 0 0 Z " fill="#2A8BFF" transform="translate(152.71749877929688,425.8528289794922)"/>
<path d="M0 0 C2.86303006 2.08923815 3.83482862 3.52513229 5 6.875 C5 12.92754729 0.12156155 17.11290688 -3.92456055 21.20245361 C-4.54758057 21.82142517 -5.17060059 22.44039673 -5.8125 23.078125 C-6.78860229 24.05709747 -6.78860229 24.05709747 -7.78442383 25.05584717 C-9.15363074 26.42640867 -10.52534096 27.79447345 -11.89941406 29.16015625 C-14.00039956 31.25039752 -16.09045914 33.35113949 -18.1796875 35.453125 C-19.51498391 36.78710037 -20.85090029 38.1204555 -22.1875 39.453125 C-22.81052002 40.08019348 -23.43354004 40.70726196 -24.07543945 41.35333252 C-24.66284912 41.93443787 -25.25025879 42.51554321 -25.85546875 43.11425781 C-26.36746826 43.62466614 -26.87946777 44.13507446 -27.40698242 44.66094971 C-30.49156644 47.25377303 -32.42934029 48.01019035 -36.5 47.9375 C-40 47 -40 47 -42.4375 44.8125 C-44.3802852 41.31548664 -44.84945396 39.93837743 -44 36 C-38.66689609 28.4494164 -31.19666597 22.01052698 -24.67382812 15.48852539 C-22.73538765 13.54787096 -20.80512138 11.59931506 -18.875 9.65039062 C-17.64111374 8.41357473 -16.40675582 7.17722914 -15.171875 5.94140625 C-14.59685242 5.35919815 -14.02182983 4.77699005 -13.42938232 4.17713928 C-8.86359368 -0.36252763 -6.33304613 -1.68019591 0 0 Z " fill="#446CFF" transform="translate(407,131)"/>
<path d="M0 0 C3.00298645 2.11075215 5.51179529 4.64684619 8.0859375 7.25390625 C8.82832672 7.98818344 9.57071594 8.72246063 10.33560181 9.47898865 C11.89770201 11.03264201 13.45220664 12.59396492 14.99951172 14.16235352 C17.36560176 16.5530042 19.76427397 18.90699867 22.16796875 21.25976562 C23.68438676 22.77655414 25.19878022 24.29536998 26.7109375 25.81640625 C27.42752533 26.51568741 28.14411316 27.21496857 28.88241577 27.93544006 C33.37085138 32.55236497 35.08753148 35.48237128 35 42 C33.5 44.9375 33.5 44.9375 31 47 C27.625 48.0625 27.625 48.0625 24 48 C18.95828338 45.13032422 15.02355615 41.35911339 10.921875 37.29296875 C9.94290253 36.32753899 9.94290253 36.32753899 8.94415283 35.34260559 C7.57335489 33.98624888 6.20529416 32.62712081 4.83984375 31.26538086 C2.75451838 29.19199252 0.6512515 27.13801106 -1.453125 25.08398438 C-2.78760454 23.75896589 -4.12097634 22.43283064 -5.453125 21.10546875 C-6.08019348 20.49793259 -6.70726196 19.89039642 -7.35333252 19.26445007 C-11.21485815 15.36253709 -13.12728059 12.47087003 -14 7 C-12.88788593 3.7254419 -11.92766429 1.76200995 -9.25 -0.4375 C-5.74381258 -1.31404686 -3.52621185 -0.90193505 0 0 Z " fill="#10ABFF" transform="translate(114,131)"/>
<path d="M0 0 C0.94470657 -0.00960754 1.88941315 -0.01921509 2.86274719 -0.02911377 C4.39864754 -0.03548859 4.39864754 -0.03548859 5.96557617 -0.04199219 C7.54165901 -0.0505423 7.54165901 -0.0505423 9.14958191 -0.05926514 C11.37640371 -0.06872371 13.60323956 -0.07525251 15.83007812 -0.07910156 C19.23421744 -0.08879789 22.63775077 -0.11980989 26.04174805 -0.15136719 C28.20385383 -0.15789805 30.36596394 -0.16314819 32.52807617 -0.16699219 C34.05486748 -0.18551239 34.05486748 -0.18551239 35.61250305 -0.20440674 C42.06639886 -0.18410751 45.75190307 0.46699096 50.44604492 5.16113281 C50.87375795 8.93926458 50.80882046 11.40031189 49.1628418 14.85229492 C44.78860849 18.56968568 40.16082654 17.8554818 34.60229492 17.79003906 C33.44105103 17.79245102 32.27980713 17.79486298 31.08337402 17.79734802 C28.6288715 17.79636878 26.17434711 17.78295704 23.7199707 17.75805664 C19.95993121 17.72375948 16.20224224 17.73739307 12.44213867 17.75683594 C10.05801407 17.74993748 7.67389554 17.7402651 5.28979492 17.72753906 C3.60061951 17.73497887 3.60061951 17.73497887 1.87731934 17.74256897 C0.82943237 17.72673264 -0.21845459 17.7108963 -1.2980957 17.69458008 C-2.67898376 17.68528221 -2.67898376 17.68528221 -4.08776855 17.67579651 C-7.29979105 17.00548575 -8.50908973 15.67015624 -10.55395508 13.16113281 C-11.2816674 10.42150994 -11.13367084 7.92899142 -10.55395508 5.16113281 C-7.42296136 1.09084098 -4.99542512 0.04093745 0 0 Z " fill="#05B8FF" transform="translate(50.553955078125,276.8388671875)"/>
<path d="M0 0 C0.9213826 -0.00960754 1.8427652 -0.01921509 2.79206848 -0.02911377 C3.78582993 -0.03336365 4.77959137 -0.03761353 5.8034668 -0.04199219 C6.82820602 -0.04769226 7.85294525 -0.05339233 8.90873718 -0.05926514 C11.07830778 -0.06871433 13.24789272 -0.0752488 15.41748047 -0.07910156 C18.7293415 -0.08879884 22.04057977 -0.11982 25.35229492 -0.15136719 C27.4610152 -0.15789825 29.56973991 -0.16314831 31.6784668 -0.16699219 C32.66615555 -0.17933899 33.6538443 -0.19168579 34.67146301 -0.20440674 C39.99948589 -0.18722877 43.86688324 0.09077397 48.44018555 3.16113281 C50.00489787 6.29055746 50.13720513 9.77195505 49.44018555 13.16113281 C47.41661915 15.64903878 46.19859735 16.99994014 43.01869202 17.67579651 C42.11888107 17.68199509 41.21907013 17.68819366 40.29199219 17.69458008 C38.75503441 17.71833458 38.75503441 17.71833458 37.18702698 17.74256897 C36.08592087 17.7376091 34.98481476 17.73264923 33.8503418 17.72753906 C32.14532753 17.73683693 32.14532753 17.73683693 30.40586853 17.74632263 C28.00268409 17.75342469 25.59945049 17.75024017 23.19628906 17.73754883 C19.51950441 17.72369618 15.84527033 17.75773677 12.16870117 17.79589844 C9.83341409 17.79684974 7.49812382 17.79499022 5.1628418 17.79003906 C4.06375992 17.80329727 2.96467804 17.81655548 1.83229065 17.83021545 C-5.77627577 17.73743488 -5.77627577 17.73743488 -9.75732422 14.80932617 C-11.98332437 11.53891798 -12.28727857 10.04094144 -11.55981445 6.16113281 C-8.34824193 1.17765821 -5.77225621 0.04864654 0 0 Z " fill="#4F5FFF" transform="translate(422.559814453125,276.8388671875)"/>
<path d="M0 0 C2.55653986 2.03661428 3.83911027 3.22904204 4.5146637 6.46618652 C4.52396156 7.84707458 4.52396156 7.84707458 4.53344727 9.25585938 C4.5492836 10.30374634 4.56511993 11.3516333 4.58143616 12.43127441 C4.57399635 14.12044983 4.57399635 14.12044983 4.56640625 15.84375 C4.57260483 17.0049939 4.57880341 18.16623779 4.58518982 19.3626709 C4.59229179 21.81713014 4.5891075 24.27163752 4.57641602 26.72607422 C4.5625507 30.48625084 4.59661961 34.24393988 4.63476562 38.00390625 C4.63571679 40.38802144 4.63385816 42.77213976 4.62890625 45.15625 C4.64216446 46.28236694 4.65542267 47.40848389 4.66908264 48.56872559 C4.57617944 56.33631402 4.57617944 56.33631402 1.64819336 59.70898438 C-1.60919344 61.29698672 -3.41883523 61.5968608 -7 61 C-9.64819336 59.70898438 -9.64819336 59.70898438 -12 57 C-12.76407668 53.06052726 -12.67602063 49.1580198 -12.62890625 45.15625 C-12.63131821 43.9950061 -12.63373016 42.83376221 -12.63621521 41.6373291 C-12.63523597 39.18282658 -12.62182423 36.72830219 -12.59692383 34.27392578 C-12.56262666 30.51388629 -12.57626025 26.75619732 -12.59570312 22.99609375 C-12.58880466 20.61196915 -12.57913229 18.22785062 -12.56640625 15.84375 C-12.57136612 14.71763306 -12.57632599 13.59151611 -12.58143616 12.43127441 C-12.56559982 11.38338745 -12.54976349 10.33550049 -12.53344727 9.25585938 C-12.52724869 8.33526733 -12.52105011 7.41467529 -12.5146637 6.46618652 C-11.84447652 3.25475621 -10.49048704 2.06464117 -8 0 C-5.02898609 -1.48550695 -3.16565278 -0.82306972 0 0 Z " fill="#2A8CFF" transform="translate(260,70)"/>
</svg>
