<?xml version="1.0" encoding="UTF-8"?>
<svg version="1.1" xmlns="http://www.w3.org/2000/svg" width="24" height="24">
<path d="M0 0 C1.66611905 -0.042721 3.33382885 -0.04063832 5 0 C7.42383518 2.42383518 6.53354865 8.59429037 6.71875 11.875 C6.65135448 14.8649801 6.65135448 14.8649801 8 16 C8.1875 18.9375 8.1875 18.9375 8 22 C6 24 6 24 2.5 24.3125 C1.345 24.209375 0.19 24.10625 -1 24 C-3.17728937 20.73406595 -3.21259538 20.28542276 -2.79296875 16.62109375 C-2.70080078 15.78255859 -2.60863281 14.94402344 -2.51367188 14.08007812 C-2.40603516 13.20802734 -2.29839844 12.33597656 -2.1875 11.4375 C-2.09146484 10.56158203 -1.99542969 9.68566406 -1.89648438 8.78320312 C-1.15368226 2.30736451 -1.15368226 2.30736451 0 0 Z " fill="#DAD7D5" transform="translate(12,0)"/>
<path d="M0 0 C0.99 0 1.98 0 3 0 C3.06058594 0.73605469 3.12117188 1.47210938 3.18359375 2.23046875 C3.26738281 3.20628906 3.35117187 4.18210937 3.4375 5.1875 C3.51871094 6.15042969 3.59992187 7.11335937 3.68359375 8.10546875 C3.97666151 10.78649602 4.42703754 13.3662986 5 16 C2.625 16.625 2.625 16.625 0 17 C-0.66 16.34 -1.32 15.68 -2 15 C-1.8185339 12.39508339 -1.53723614 9.94318377 -1.125 7.375 C-1.02058594 6.66859375 -0.91617187 5.9621875 -0.80859375 5.234375 C-0.54900874 3.48807586 -0.27578567 1.74381401 0 0 Z " fill="#E63B4C" transform="translate(13,5)"/>
<path d="M0 0 C0.33 1.98 0.66 3.96 1 6 C-1.3125 7.125 -1.3125 7.125 -4 8 C-4.99 7.34 -5.98 6.68 -7 6 C-6.625 3.0625 -6.625 3.0625 -6 0 C-3.50907189 -1.24546405 -2.58919267 -0.7767578 0 0 Z " fill="#FE8423" transform="translate(9,2)"/>
<path d="M0 0 C0.33 0 0.66 0 1 0 C1.33 5.28 1.66 10.56 2 16 C1.01 16 0.02 16 -1 16 C-1.5625 14.0625 -1.5625 14.0625 -2 12 C-1.67 11.67 -1.34 11.34 -1 11 C-0.76636119 9.15108054 -0.58696365 7.29511969 -0.4375 5.4375 C-0.35371094 4.42558594 -0.26992187 3.41367188 -0.18359375 2.37109375 C-0.12300781 1.58863281 -0.06242188 0.80617188 0 0 Z " fill="#F45E62" transform="translate(13,5)"/>
<path d="M0 0 C1.32 0.66 2.64 1.32 4 2 C3.67 3.32 3.34 4.64 3 6 C1.68 6 0.36 6 -1 6 C-0.67 4.02 -0.34 2.04 0 0 Z " fill="#FCA134" transform="translate(3,2)"/>
<path d="M0 0 C0.433125 0.61875 0.86625 1.2375 1.3125 1.875 C2.99740483 4.2197245 2.99740483 4.2197245 6 6 C4.35 6.33 2.7 6.66 1 7 C-1 4 -1 4 -0.625 1.8125 C-0.41875 1.214375 -0.2125 0.61625 0 0 Z " fill="#DBCBCC" transform="translate(10,17)"/>
<path d="M0 0 C0.99 0 1.98 0 3 0 C3 0.66 3 1.32 3 2 C2.01 2 1.02 2 0 2 C0 1.34 0 0.68 0 0 Z " fill="#0B6E96" transform="translate(19,13)"/>
<path d="M0 0 C0.99 0 1.98 0 3 0 C3 0.66 3 1.32 3 2 C2.01 2 1.02 2 0 2 C0 1.34 0 0.68 0 0 Z " fill="#0C6D9A" transform="translate(19,7)"/>
<path d="M0 0 C0.99 0 1.98 0 3 0 C3 0.66 3 1.32 3 2 C2.01 2 1.02 2 0 2 C0 1.34 0 0.68 0 0 Z " fill="#0B7196" transform="translate(19,1)"/>
<path d="M0 0 C0.66 0 1.32 0 2 0 C2 0.66 2 1.32 2 2 C1.34 2 0.68 2 0 2 C0 1.34 0 0.68 0 0 Z " fill="#0D6D99" transform="translate(19,10)"/>
<path d="M0 0 C0.66 0 1.32 0 2 0 C2 0.66 2 1.32 2 2 C1.34 2 0.68 2 0 2 C0 1.34 0 0.68 0 0 Z " fill="#0D6E9A" transform="translate(19,4)"/>
</svg>
