<?xml version="1.0" encoding="UTF-8"?>
<!DOCTYPE svg PUBLIC "-//W3C//DTD SVG 1.1//EN" "http://www.w3.org/Graphics/SVG/1.1/DTD/svg11.dtd">
<svg xmlns="http://www.w3.org/2000/svg" version="1.1" width="32px" height="32px" style="shape-rendering:geometricPrecision; text-rendering:geometricPrecision; image-rendering:optimizeQuality; fill-rule:evenodd; clip-rule:evenodd" xmlns:xlink="http://www.w3.org/1999/xlink">
<g><path style="opacity:0.932" fill="#1eb7ff" d="M 27.5,9.5 C 25.5853,9.21552 23.9187,9.54885 22.5,10.5C 17.8333,6.5 13.1667,6.5 8.5,10.5C 7.08134,9.54885 5.41467,9.21552 3.5,9.5C 11.5,2.83333 19.5,2.83333 27.5,9.5 Z"/></g>
<g><path style="opacity:1" fill="#daeeff" d="M 22.5,10.5 C 23.3686,12.717 23.702,15.0504 23.5,17.5C 22.925,19.4113 21.925,21.078 20.5,22.5C 16.6099,24.0539 12.9432,23.7206 9.5,21.5C 8.39952,20.3951 7.73286,19.0618 7.5,17.5C 7.29803,15.0504 7.63137,12.717 8.5,10.5C 13.1667,6.5 17.8333,6.5 22.5,10.5 Z"/></g>
<g><path style="opacity:0.982" fill="#2fa1ff" d="M 3.5,9.5 C 5.41467,9.21552 7.08134,9.54885 8.5,10.5C 7.63137,12.717 7.29803,15.0504 7.5,17.5C 6.56552,16.4324 6.23219,15.099 6.5,13.5C 4.5,13.5 2.5,13.5 0.5,13.5C 0.737579,11.5956 1.73758,10.2623 3.5,9.5 Z"/></g>
<g><path style="opacity:1" fill="#46a3ff" d="M 17.5,14.5 C 15.5,14.5 13.5,14.5 11.5,14.5C 11.5,15.5 11.5,16.5 11.5,17.5C 10.2047,13.4172 11.8714,11.0839 16.5,10.5C 16.4326,11.9587 16.7659,13.2921 17.5,14.5 Z"/></g>
<g><path style="opacity:0.9" fill="#2a99ff" d="M 27.5,9.5 C 29.1942,10.5274 30.5275,11.8608 31.5,13.5C 31.5,14.1667 31.5,14.8333 31.5,15.5C 28.4669,15.1315 25.8002,15.7982 23.5,17.5C 23.702,15.0504 23.3686,12.717 22.5,10.5C 23.9187,9.54885 25.5853,9.21552 27.5,9.5 Z"/></g>
<g><path style="opacity:1" fill="#4387ff" d="M 17.5,14.5 C 20.0168,16.0771 20.0168,17.9104 17.5,20C 14.7058,20.9724 12.7058,20.1391 11.5,17.5C 11.5,16.5 11.5,15.5 11.5,14.5C 13.5,14.5 15.5,14.5 17.5,14.5 Z"/></g>
<g><path style="opacity:1" fill="#3c7eff" d="M -0.5,13.5 C -0.166667,13.5 0.166667,13.5 0.5,13.5C 2.5,13.5 4.5,13.5 6.5,13.5C 6.23219,15.099 6.56552,16.4324 7.5,17.5C 7.73286,19.0618 8.39952,20.3951 9.5,21.5C 7.09709,21.552 4.76375,21.2186 2.5,20.5C 1.27187,19.6935 0.271873,18.6935 -0.5,17.5C -0.5,16.1667 -0.5,14.8333 -0.5,13.5 Z"/></g>
<g><path style="opacity:0.863" fill="#4178ff" d="M 31.5,15.5 C 31.5,16.1667 31.5,16.8333 31.5,17.5C 30.194,19.4727 28.5273,21.1394 26.5,22.5C 24.5,22.5 22.5,22.5 20.5,22.5C 21.925,21.078 22.925,19.4113 23.5,17.5C 25.8002,15.7982 28.4669,15.1315 31.5,15.5 Z"/></g>
<g><path style="opacity:0.657" fill="#5162ff" d="M 2.5,20.5 C 4.76375,21.2186 7.09709,21.552 9.5,21.5C 12.9432,23.7206 16.6099,24.0539 20.5,22.5C 22.5,22.5 24.5,22.5 26.5,22.5C 17.963,28.2662 9.96299,27.5995 2.5,20.5 Z"/></g>
</svg>
