<?xml version="1.0" encoding="UTF-8"?>
<svg version="1.1" xmlns="http://www.w3.org/2000/svg" width="32" height="32">
<path d="M0 0 C4.5207473 0.0787358 6.66494301 1.14905992 9.9375 4.25 C12.83889642 7.5616949 14.58732443 10.06002472 14.375 14.625 C13.385 16.11 13.385 16.11 12.375 17.625 C11.385 17.625 10.395 17.625 9.375 17.625 C9.4575 16.531875 9.54 15.43875 9.625 14.3125 C9.80101514 10.58983185 9.80101514 10.58983185 7.375 8.8125 C6.715 8.420625 6.055 8.02875 5.375 7.625 C5.375 6.965 5.375 6.305 5.375 5.625 C0.7686619 4.42603269 0.7686619 4.42603269 -3.5 5.8125 C-4.73544167 7.58804049 -4.73544167 7.58804049 -5.125 9.75 C-5.29 10.36875 -5.455 10.9875 -5.625 11.625 C-6.615 11.955 -7.605 12.285 -8.625 12.625 C-8.625 14.605 -8.625 16.585 -8.625 18.625 C-9.945 18.295 -11.265 17.965 -12.625 17.625 C-13.375 14.875 -13.375 14.875 -13.625 11.625 C-11.875 9.5625 -11.875 9.5625 -9.625 7.625 C-8.60195052 5.97238161 -7.59883946 4.30708635 -6.625 2.625 C-4.21693913 0.21693913 -3.32957891 0.19585758 0 0 Z " fill="#288DFF" transform="translate(15.625,3.375)"/>
<path d="M0 0 C4.62 0 9.24 0 14 0 C14.33 1.32 14.66 2.64 15 4 C9.72 4 4.44 4 -1 4 C-0.67 2.68 -0.34 1.36 0 0 Z " fill="#2A8CFF" transform="translate(9,19)"/>
<path d="M0 0 C1.60875 -0.00386719 1.60875 -0.00386719 3.25 -0.0078125 C6 0.125 6 0.125 8 1.125 C8 2.115 8 3.105 8 4.125 C2.72 4.125 -2.56 4.125 -8 4.125 C-8 3.135 -8 2.145 -8 1.125 C-5.26922124 -0.24038938 -3.04439633 -0.00731826 0 0 Z " fill="#2A8CFF" transform="translate(16,23.875)"/>
</svg>
