<?xml version="1.0" encoding="UTF-8"?>
<svg version="1.1" xmlns="http://www.w3.org/2000/svg" width="32" height="32">
<path d="M0 0 C0.625 2.375 0.625 2.375 1 5 C-1 7 -1 7 -3.52197266 7.22705078 C-4.5588623 7.21657715 -5.59575195 7.20610352 -6.6640625 7.1953125 C-7.78554688 7.18886719 -8.90703125 7.18242187 -10.0625 7.17578125 C-11.238125 7.15902344 -12.41375 7.14226563 -13.625 7.125 C-15.40003906 7.11146484 -15.40003906 7.11146484 -17.2109375 7.09765625 C-20.14082523 7.07402812 -23.0703134 7.04108514 -26 7 C-26 6.01 -26 5.02 -26 4 C-19.73 4 -13.46 4 -7 4 C-7 2.68 -7 1.36 -7 0 C-4.3333581 -1.33332095 -2.83319697 -0.67102033 0 0 Z M-5 2 C-5 2.66 -5 3.32 -5 4 C-4.01 4 -3.02 4 -2 4 C-2 3.34 -2 2.68 -2 2 C-2.99 2 -3.98 2 -5 2 Z " fill="#55B5DF" transform="translate(27,8)"/>
<path d="M0 0 C3.79160297 -0.05786668 7.58309311 -0.09355054 11.375 -0.125 C12.45523437 -0.14175781 13.53546875 -0.15851562 14.6484375 -0.17578125 C15.6796875 -0.18222656 16.7109375 -0.18867188 17.7734375 -0.1953125 C19.20308838 -0.21102295 19.20308838 -0.21102295 20.66162109 -0.22705078 C23 0 23 0 25 2 C24.625 4.625 24.625 4.625 24 7 C21.625 7.625 21.625 7.625 19 8 C18.34 7.34 17.68 6.68 17 6 C17 5.01 17 4.02 17 3 C11.39 2.67 5.78 2.34 0 2 C0 1.34 0 0.68 0 0 Z M19 2 C19.33 2.99 19.66 3.98 20 5 C20.66 5 21.32 5 22 5 C21.67 4.01 21.34 3.02 21 2 C20.34 2 19.68 2 19 2 Z " fill="#55BBDF" transform="translate(3,19)"/>
<path d="M0 0 C10.56 0 21.12 0 32 0 C32 0.66 32 1.32 32 2 C21.44 2 10.88 2 0 2 C0 1.34 0 0.68 0 0 Z " fill="#55B9DE" transform="translate(0,16)"/>
<path d="M0 0 C1.32 0.33 2.64 0.66 4 1 C4.5625 2.9375 4.5625 2.9375 5 5 C4 6 4 6 1.05859375 6.09765625 C-0.73384766 6.08025391 -0.73384766 6.08025391 -2.5625 6.0625 C-4.35880859 6.04896484 -4.35880859 6.04896484 -6.19140625 6.03515625 C-7.11824219 6.02355469 -8.04507812 6.01195312 -9 6 C-9 5.34 -9 4.68 -9 4 C-6.36 4 -3.72 4 -1 4 C-0.67 2.68 -0.34 1.36 0 0 Z " fill="#54B4DD" transform="translate(14,5)"/>
</svg>
